<svg width="36" height="36" viewBox="0 0 36 36" fill="none" xmlns="http://www.w3.org/2000/svg">
<g clip-path="url(#clip0_61_42)">
<path d="M33.62 17.53C30.25 11.3 24.34 7.53 17.8 7.53C11.26 7.53 5.34 11.3 2 17.53L1.72 18L1.98 18.48C5.35 24.71 11.26 28.48 17.8 28.48C24.34 28.48 30.26 24.76 33.62 18.48L33.88 18L33.62 17.53ZM17.8 26.43C12.17 26.43 7 23.29 4 18C7 12.71 12.17 9.57 17.8 9.57C23.43 9.57 28.54 12.72 31.59 18C28.54 23.29 23.42 26.43 17.8 26.43Z" fill="#808080"/>
<path d="M18.09 11.17C16.7341 11.1799 15.4116 11.5914 14.2894 12.3525C13.1673 13.1136 12.2958 14.1902 11.7852 15.4462C11.2745 16.7023 11.1475 18.0816 11.4203 19.4098C11.693 20.738 12.3533 21.9555 13.3176 22.9087C14.282 23.8619 15.5072 24.5079 16.8385 24.7652C18.1697 25.0225 19.5474 24.8794 20.7975 24.3542C22.0475 23.8289 23.1139 22.945 23.8619 21.8141C24.6098 20.6831 25.0059 19.3559 25 18C24.9961 17.0974 24.8141 16.2045 24.4644 15.3724C24.1148 14.5403 23.6044 13.7854 22.9625 13.1509C22.3206 12.5164 21.5598 12.0148 20.7236 11.6749C19.8875 11.335 18.9925 11.1634 18.09 11.17ZM18.09 22.89C17.1323 22.8801 16.1988 22.5875 15.4068 22.0488C14.6148 21.5101 13.9997 20.7495 13.6386 19.8623C13.2776 18.9752 13.1867 18.0012 13.3774 17.0625C13.5681 16.1239 14.0319 15.2626 14.7106 14.5867C15.3892 13.9108 16.2524 13.4505 17.1918 13.2637C18.1312 13.0768 19.1049 13.1716 19.9905 13.5363C20.8762 13.901 21.6343 14.5192 22.1698 15.3134C22.7052 16.1076 22.994 17.0422 23 18C23.0027 18.6446 22.8773 19.2833 22.6313 19.8791C22.3852 20.4749 22.0233 21.0159 21.5666 21.4708C21.1099 21.9257 20.5674 22.2853 19.9706 22.529C19.3738 22.7726 18.7346 22.8953 18.09 22.89Z" fill="#808080"/>
</g>
<defs>
<clipPath id="clip0_61_42">
<rect width="36" height="36" fill="white"/>
</clipPath>
</defs>
</svg>
